<?xml version="1.0" standalone="no"?>
<!DOCTYPE svg PUBLIC "-//W3C//DTD SVG 20010904//EN"
 "http://www.w3.org/TR/2001/REC-SVG-20010904/DTD/svg10.dtd">
<svg version="1.0" xmlns="http://www.w3.org/2000/svg"
 width="1000.000000pt" height="750.000000pt" viewBox="0 0 1000.000000 750.000000"
 preserveAspectRatio="xMidYMid meet">

<g transform="translate(0.000000,750.000000) scale(0.100000,-0.100000)"
fill="#000000" stroke="none">
<path d="M2095 4763 c-47 -13 -45 31 -45 -1014 l0 -988 23 -13 c13 -8 57 -13
112 -13 55 0 99 5 113 13 l22 13 0 988 c0 891 -2 990 -16 1002 -16 13 -171 23
-209 12z"/>
<path d="M4170 4760 c-66 -16 -63 37 -57 -850 l5 -805 -75 150 c-41 83 -224
431 -406 775 -353 664 -381 708 -456 723 -18 4 -80 7 -138 7 -110 0 -153 -12
-173 -49 -7 -13 -10 -342 -10 -984 0 -885 1 -966 17 -978 11 -10 46 -14 113
-14 67 0 102 4 113 14 16 12 17 85 17 860 l0 846 103 -200 c100 -194 688
-1294 730 -1365 74 -127 115 -150 262 -150 104 0 107 1 136 29 l29 29 0 971
c0 968 0 970 -21 981 -27 15 -146 21 -189 10z"/>
<path d="M340 4732 l-30 -30 0 -949 c0 -1038 -4 -977 59 -1002 21 -9 121 -12
387 -9 408 5 443 10 596 90 181 94 273 240 285 453 9 156 -32 282 -122 383
-63 70 -129 110 -239 146 -17 6 -12 12 30 40 136 92 204 222 204 392 0 260
-121 418 -375 490 -50 15 -118 18 -412 22 l-353 4 -30 -30z m708 -214 c130
-48 186 -139 186 -299 -1 -71 -5 -95 -28 -145 -30 -64 -63 -104 -114 -136 -62
-38 -127 -48 -324 -48 l-188 0 0 326 0 326 213 -4 c162 -3 222 -8 255 -20z
m12 -858 c127 -24 220 -92 266 -192 24 -55 28 -76 28 -158 1 -82 -3 -103 -25
-150 -46 -99 -128 -160 -245 -185 -48 -10 -135 -15 -286 -15 l-218 0 0 355 0
355 214 0 c117 0 237 -5 266 -10z"/>
<path d="M4953 4736 l-28 -24 -3 -944 c-2 -697 1 -950 9 -971 23 -54 42 -57
346 -57 392 0 551 24 727 110 307 150 467 463 468 915 1 493 -196 809 -584
939 -136 46 -242 56 -590 56 l-317 0 -28 -24z m742 -221 c178 -42 332 -162
408 -316 68 -139 81 -206 81 -439 0 -180 -2 -216 -22 -295 -66 -263 -220 -422
-459 -475 -72 -16 -127 -20 -300 -20 l-213 0 0 786 0 787 218 -6 c153 -3 237
-10 287 -22z"/>
<path d="M6923 4736 l-28 -24 -3 -934 c-1 -513 0 -948 3 -966 4 -23 16 -39 38
-52 31 -19 54 -20 539 -20 l508 0 16 25 c19 29 22 142 4 174 -11 21 -16 21
-425 21 l-415 0 0 365 0 365 349 0 c312 0 350 2 362 17 9 10 14 42 14 88 0 46
-5 78 -14 88 -12 15 -50 17 -362 17 l-349 0 0 320 0 320 404 0 405 0 15 22
c11 15 16 45 16 88 0 43 -5 73 -16 88 l-15 22 -509 0 -509 0 -28 -24z"/>
<path d="M8499 4745 c-15 -8 -32 -29 -38 -46 -8 -23 -11 -313 -11 -980 0 -832
2 -949 15 -963 30 -30 183 -34 234 -6 21 11 21 15 21 451 l0 441 148 -3 c136
-4 151 -6 202 -31 79 -39 142 -107 194 -207 24 -47 93 -212 152 -365 128 -327
114 -311 265 -304 105 5 123 16 115 68 -7 47 -225 581 -278 684 -46 87 -127
182 -182 211 -20 11 -36 22 -35 25 0 3 41 25 91 49 203 97 301 269 285 499
-15 221 -135 377 -343 446 -120 39 -193 46 -514 45 -237 0 -300 -3 -321 -14z
m678 -229 c81 -26 144 -75 176 -137 37 -73 51 -163 37 -242 -15 -80 -38 -124
-93 -174 -91 -84 -164 -103 -404 -103 l-173 0 0 341 0 341 203 -4 c151 -4 215
-9 254 -22z"/>
</g>
</svg>
